<svg xmlns="http://www.w3.org/2000/svg" viewBox="0 0 96 96" width="96" height="96"><path fill="#a58254" fill-rule="evenodd" d="M 87 55 L 76 51 L 86 58 L 81 62 L 71 58 L 70 48 L 74 44 L 80 44 L 85 49 L 80 42 L 74 42 L 69 46 L 71 56 L 54 56 L 50 61 L 52 70 L 48 73 L 45 70 L 46 60 L 40 55 L 31 55 L 16 62 L 11 56 L 18 55 L 20 50 L 18 53 L 12 52 L 10 60 L 13 63 L 22 63 L 23 71 L 28 74 L 43 71 L 48 75 L 57 70 L 68 74 L 74 70 L 74 63 L 84 63 Z M 22 63 L 23 62 L 24 63 L 23 64 Z M 60 63 L 63 60 L 64 60 L 65 59 L 70 60 L 71 61 L 70 62 L 66 62 L 65 63 L 64 66 L 65 67 L 68 63 L 70 63 L 73 66 L 73 69 L 69 72 L 64 72 L 63 71 L 62 71 L 59 67 L 59 65 L 60 64 Z M 29 59 L 34 60 L 37 63 L 37 65 L 38 66 L 37 67 L 37 68 L 33 72 L 27 72 L 24 69 L 24 65 L 26 63 L 29 63 L 32 67 L 33 66 L 33 65 L 31 62 L 28 62 L 27 61 Z M 63 56 L 64 57 L 58 62 L 58 68 L 57 69 L 54 69 L 51 65 L 51 64 L 52 63 L 52 61 L 55 58 L 56 58 L 57 57 L 61 57 L 62 56 Z M 34 56 L 36 56 L 37 57 L 40 57 L 45 62 L 45 66 L 43 69 L 39 69 L 38 68 L 39 67 L 39 63 L 38 62 L 38 61 L 33 57 Z M 13 45 L 13 46 L 12 47 L 12 49 L 15 45 L 16 45 L 19 43 L 20 43 L 21 44 L 23 44 L 26 47 L 26 49 L 27 50 L 27 51 L 26 52 L 26 54 L 25 55 L 26 55 L 28 53 L 28 47 L 25 43 L 24 43 L 23 42 L 17 42 Z M 45 15 L 38 18 L 33 23 L 30 30 L 30 37 L 34 46 L 39 50 L 45 52 L 52 52 L 59 49 L 65 43 L 67 38 L 67 30 L 64 23 L 59 18 L 51 15 Z M 55 46 L 56 45 L 57 46 L 56 47 Z M 56 45 L 57 44 L 58 45 L 57 46 Z M 58 44 L 59 43 L 60 44 L 59 45 Z M 59 42 L 60 41 L 61 42 L 61 43 L 60 44 L 59 43 Z M 60 40 L 61 39 L 62 40 L 62 41 L 61 42 L 60 41 Z M 61 38 L 62 37 L 63 38 L 63 39 L 62 40 L 61 39 Z M 35 32 L 36 31 L 37 31 L 38 32 L 38 34 L 37 35 L 36 35 L 35 34 Z M 48 21 L 46 23 L 43 24 L 40 27 L 40 28 L 38 31 L 35 29 L 36 28 L 36 26 L 41 21 L 42 21 L 43 20 L 47 20 Z"/></svg>
