<svg xmlns="http://www.w3.org/2000/svg" viewBox="0 0 96 96" width="96" height="96"><path fill="#a58254" fill-rule="evenodd" d="M 48 13 L 38 35 L 40 45 L 48 50 L 31 56 L 16 55 L 20 63 L 26 68 L 47 77 L 68 69 L 76 63 L 80 56 L 66 56 L 49 50 L 57 44 L 58 33 Z M 52 71 L 53 70 L 54 71 L 53 72 Z M 60 66 L 59 67 L 58 67 L 57 66 L 55 66 L 53 68 L 53 70 L 52 71 L 50 69 L 51 68 L 51 67 L 54 64 L 58 64 Z M 37 66 L 39 64 L 43 64 L 46 67 L 46 70 L 45 71 L 44 71 L 43 70 L 43 67 L 42 66 L 40 66 L 39 67 L 38 67 Z M 48 59 L 50 61 L 50 62 L 52 62 L 53 63 L 50 66 L 50 71 L 51 72 L 50 73 L 47 73 L 46 72 L 46 71 L 47 70 L 47 67 L 46 66 L 46 65 L 43 63 L 44 62 L 46 62 Z M 18 57 L 19 56 L 32 57 L 46 52 L 51 52 L 65 57 L 74 57 L 75 56 L 78 57 L 74 60 L 69 61 L 58 59 L 49 54 L 32 61 L 23 60 Z M 44 47 L 45 46 L 46 47 L 45 48 Z M 48 32 L 50 34 L 50 35 L 51 36 L 51 38 L 52 39 L 52 43 L 49 47 L 48 46 L 48 41 L 48 46 L 47 47 L 45 45 L 45 43 L 44 42 L 44 41 L 45 40 L 45 37 Z M 48 15 L 51 20 L 52 24 L 51 27 L 53 25 L 57 32 L 57 42 L 52 48 L 51 46 L 53 43 L 53 39 L 48 29 L 44 38 L 44 45 L 45 46 L 43 47 L 39 41 L 40 30 L 43 26 L 45 28 L 44 23 Z"/></svg>
