<svg xmlns="http://www.w3.org/2000/svg" viewBox="0 0 96 96" width="96" height="96"><path fill="#d8c49a" fill-rule="evenodd" d="M 46 11 L 45 21 L 30 27 L 24 22 L 21 23 L 26 31 L 20 46 L 13 46 L 11 49 L 21 54 L 26 66 L 21 71 L 22 75 L 30 70 L 45 76 L 45 84 L 50 85 L 50 77 L 66 69 L 70 75 L 74 74 L 68 67 L 75 51 L 82 52 L 84 48 L 75 46 L 69 31 L 74 26 L 73 22 L 65 27 L 58 22 L 49 21 L 51 13 Z M 48 56 L 49 55 L 52 54 L 56 58 L 56 60 L 57 61 L 59 61 L 62 64 L 62 65 L 63 65 L 64 66 L 60 69 L 59 69 L 56 71 L 54 71 L 53 72 L 50 72 L 49 71 L 49 69 L 48 68 L 48 65 L 50 63 L 48 61 Z M 44 54 L 47 56 L 47 61 L 45 63 L 47 65 L 47 69 L 45 72 L 42 72 L 41 71 L 39 71 L 38 70 L 33 68 L 32 67 L 32 66 L 37 61 L 38 61 L 39 60 L 39 59 Z M 55 49 L 59 49 L 61 51 L 63 51 L 65 49 L 67 49 L 68 50 L 70 50 L 71 51 L 71 55 L 70 56 L 67 63 L 65 65 L 60 60 L 59 57 L 57 57 L 53 53 L 53 52 Z M 24 51 L 25 50 L 27 50 L 28 49 L 30 49 L 32 51 L 33 51 L 36 49 L 40 49 L 42 51 L 42 53 L 38 57 L 37 57 L 36 58 L 36 59 L 30 65 L 27 61 L 27 60 L 25 57 L 25 55 L 24 54 Z M 46 45 L 49 45 L 51 47 L 51 50 L 49 52 L 46 52 L 44 50 L 44 47 Z M 65 33 L 68 36 L 68 37 L 70 40 L 70 42 L 71 43 L 71 47 L 70 48 L 69 47 L 68 48 L 64 48 L 63 47 L 61 47 L 60 48 L 55 48 L 53 46 L 53 44 L 56 41 L 58 41 L 59 40 L 59 38 L 63 34 L 64 34 Z M 30 32 L 36 38 L 36 40 L 37 41 L 39 41 L 42 44 L 42 46 L 40 48 L 35 48 L 34 47 L 32 47 L 31 48 L 28 48 L 27 47 L 26 47 L 25 48 L 24 47 L 24 43 L 25 42 L 25 40 L 26 39 L 27 36 Z M 49 24 L 50 24 L 51 25 L 54 25 L 55 26 L 57 26 L 61 29 L 62 29 L 64 31 L 58 37 L 56 37 L 56 39 L 52 43 L 50 43 L 48 41 L 48 37 L 50 35 L 48 33 L 48 28 L 49 27 L 49 26 L 48 25 Z M 46 24 L 47 25 L 46 26 L 46 27 L 47 28 L 47 33 L 45 35 L 47 37 L 47 41 L 45 43 L 43 43 L 40 40 L 40 38 L 39 37 L 37 37 L 31 31 L 38 26 L 40 26 L 41 25 L 44 25 L 45 24 Z"/></svg>
