<svg xmlns="http://www.w3.org/2000/svg" viewBox="0 0 96 96" width="96" height="96"><path stroke="#3D2E1E" stroke-width="4" stroke-linejoin="round" stroke-linecap="round" fill="#3D2E1E" fill-rule="evenodd" d="M 7 43 L 11 53 L 21 62 L 15 66 L 24 72 L 35 72 L 43 67 L 50 74 L 56 67 L 64 72 L 76 72 L 84 66 L 78 62 L 86 56 L 92 45 L 90 42 L 78 41 L 79 31 L 72 31 L 70 21 L 59 28 L 50 15 L 40 28 L 29 21 L 27 31 L 20 31 L 21 41 Z M 59 68 L 60 67 L 61 67 L 62 68 L 61 69 L 60 69 Z M 57 67 L 58 66 L 59 67 L 58 68 Z M 40 67 L 41 66 L 42 67 L 41 68 Z M 82 67 L 80 69 L 76 71 L 71 71 L 70 72 L 69 71 L 64 71 L 61 69 L 62 68 L 65 68 L 66 69 L 73 69 L 73 68 L 65 68 L 64 67 L 61 67 L 58 65 L 59 64 L 62 64 L 63 65 L 69 65 L 70 64 L 74 64 L 75 63 L 77 63 L 81 65 Z M 47 63 L 52 63 L 54 65 L 54 69 L 51 72 L 48 72 L 45 68 L 45 65 Z M 17 67 L 18 65 L 22 64 L 23 63 L 25 64 L 29 64 L 30 65 L 37 65 L 38 64 L 41 64 L 42 65 L 41 66 L 35 67 L 34 68 L 26 68 L 25 69 L 33 69 L 34 68 L 37 68 L 38 67 L 40 68 L 38 70 L 36 70 L 35 71 L 24 71 L 23 70 L 19 69 Z M 31 63 L 32 62 L 35 62 L 36 63 L 35 64 L 32 64 Z M 58 60 L 59 59 L 60 59 L 61 60 L 60 61 L 59 61 Z M 60 59 L 61 58 L 62 59 L 61 60 Z M 52 59 L 53 58 L 54 59 L 53 60 Z M 38 59 L 39 58 L 40 59 L 39 60 Z M 41 58 L 42 57 L 43 58 L 42 59 Z M 36 58 L 37 57 L 38 58 L 37 59 Z M 91 45 L 86 54 L 81 59 L 73 63 L 63 64 L 62 63 L 67 61 L 71 61 L 77 58 L 83 53 L 84 50 L 77 57 L 67 61 L 63 60 L 67 58 L 73 52 L 78 43 L 89 43 Z M 8 45 L 10 43 L 21 43 L 27 53 L 36 60 L 35 61 L 28 60 L 22 57 L 15 50 L 17 54 L 22 58 L 32 62 L 31 63 L 26 63 L 20 60 L 11 51 Z M 50 36 L 51 37 L 51 38 L 52 39 L 52 41 L 53 42 L 53 45 L 54 46 L 54 52 L 53 53 L 53 56 L 52 57 L 51 60 L 50 61 L 49 61 L 46 56 L 46 53 L 45 52 L 45 47 L 46 46 L 46 43 L 47 42 L 47 40 Z M 77 32 L 78 33 L 78 37 L 75 46 L 72 51 L 65 58 L 63 59 L 61 58 L 70 49 L 72 43 L 69 49 L 60 58 L 57 59 L 56 58 L 60 52 L 61 44 L 64 39 L 69 35 Z M 22 32 L 28 34 L 37 42 L 40 54 L 42 56 L 41 58 L 34 53 L 30 48 L 27 42 L 29 48 L 37 57 L 36 58 L 33 57 L 27 51 L 22 41 L 22 38 L 21 37 L 21 33 Z M 69 22 L 70 23 L 70 25 L 71 26 L 71 32 L 68 35 L 67 35 L 62 40 L 61 39 L 61 37 L 60 36 L 60 32 L 59 31 L 59 30 L 62 26 L 63 26 L 65 24 L 66 24 Z M 30 22 L 31 23 L 33 23 L 35 25 L 36 25 L 40 29 L 40 32 L 39 33 L 39 36 L 38 37 L 38 39 L 37 40 L 32 35 L 31 35 L 28 32 L 28 27 L 29 26 L 29 23 Z M 49 17 L 55 23 L 60 39 L 59 51 L 57 56 L 54 59 L 53 57 L 55 52 L 55 47 L 53 39 L 50 34 L 45 43 L 44 48 L 46 57 L 45 59 L 40 51 L 39 38 L 41 30 Z"/></svg>
