<svg xmlns="http://www.w3.org/2000/svg" viewBox="0 0 96 96" width="96" height="96"><path fill="#d8c49a" fill-rule="evenodd" d="M 52 69 L 52 70 L 53 71 L 53 73 L 54 74 L 54 76 L 55 77 L 55 75 L 54 74 L 53 69 Z M 42 69 L 41 70 L 41 73 L 40 74 L 40 77 L 40 76 L 41 75 L 41 73 L 42 72 Z M 58 67 L 61 74 L 63 76 L 63 77 L 66 82 L 66 80 L 65 79 L 65 78 L 63 76 L 60 69 Z M 37 67 L 36 67 L 36 68 L 34 70 L 34 71 L 33 72 L 31 77 L 29 79 L 28 82 L 29 82 L 32 75 L 34 73 L 34 72 Z M 62 63 L 69 70 L 69 69 L 63 63 Z M 33 63 L 32 63 L 25 70 L 26 70 Z M 66 60 L 67 60 L 69 62 L 72 63 L 74 65 L 81 68 L 77 65 L 74 64 L 72 62 L 71 62 L 68 60 Z M 28 60 L 23 62 L 21 64 L 18 65 L 14 68 L 21 65 L 23 63 L 26 62 Z M 47 58 L 47 87 L 48 87 L 48 58 Z M 52 57 L 52 58 L 55 62 L 55 63 L 56 64 L 57 64 L 55 62 L 54 59 Z M 43 57 L 42 57 L 41 58 L 41 59 L 38 63 L 38 64 L 39 64 L 40 61 Z M 68 53 L 68 54 L 69 54 L 70 55 L 72 55 L 73 56 L 75 56 L 76 57 L 77 57 L 74 55 L 72 55 L 71 54 L 69 54 Z M 56 53 L 56 54 L 57 55 L 64 58 L 60 55 L 59 55 Z M 39 53 L 38 54 L 35 55 L 33 57 L 32 57 L 31 58 L 31 59 L 33 57 L 34 57 L 38 54 L 39 54 Z M 27 53 L 26 54 L 24 54 L 23 55 L 18 56 L 18 57 L 19 57 L 20 56 L 22 56 L 23 55 L 25 55 L 26 54 L 27 54 Z M 58 48 L 58 49 L 87 49 L 87 48 Z M 8 48 L 8 49 L 38 49 L 38 48 Z M 45 44 L 43 46 L 43 50 L 44 51 L 44 52 L 45 53 L 50 53 L 52 51 L 52 46 L 50 44 Z M 45 45 L 48 44 L 51 46 L 52 49 L 50 52 L 46 52 L 44 50 L 44 46 Z M 77 40 L 76 40 L 75 41 L 72 41 L 71 42 L 69 42 L 69 43 L 71 43 L 72 42 L 77 41 Z M 18 40 L 18 41 L 20 41 L 21 42 L 26 43 L 26 42 L 23 42 L 22 41 L 20 41 L 19 40 Z M 64 40 L 63 39 L 61 41 L 58 42 L 56 44 L 57 44 L 61 41 Z M 31 39 L 31 40 L 32 40 L 34 42 L 39 44 L 35 41 L 34 41 Z M 57 32 L 54 36 L 52 41 L 54 39 Z M 81 28 L 80 29 L 77 30 L 69 36 L 66 37 L 66 38 L 67 38 L 69 36 L 72 35 L 74 33 L 75 33 L 77 31 L 78 31 L 80 29 L 81 29 Z M 13 28 L 13 29 L 16 30 L 18 32 L 21 33 L 26 37 L 29 38 L 29 37 L 26 36 L 24 34 L 21 33 L 16 29 Z M 70 27 L 69 27 L 62 34 L 63 34 Z M 25 27 L 32 34 L 33 34 L 26 27 Z M 56 19 L 55 19 L 55 20 L 54 21 L 54 23 L 53 24 L 53 26 L 52 27 L 52 28 L 53 28 L 53 27 L 54 26 L 54 23 L 55 22 L 55 20 Z M 39 19 L 39 20 L 40 21 L 40 23 L 41 24 L 41 26 L 42 27 L 42 28 L 43 28 L 42 27 L 42 25 L 41 24 L 40 19 Z M 67 14 L 64 18 L 64 19 L 63 20 L 61 25 L 59 27 L 58 30 L 59 30 L 61 25 L 63 23 L 63 22 L 64 21 Z M 27 14 L 28 15 L 30 20 L 32 22 L 33 25 L 35 27 L 36 30 L 38 32 L 41 39 L 43 41 L 41 36 L 37 31 L 37 29 L 35 27 L 34 24 L 32 22 L 29 15 L 28 14 Z M 47 7 L 47 39 L 48 39 L 48 7 Z"/></svg>
