<svg xmlns="http://www.w3.org/2000/svg" viewBox="0 0 256 256" width="256" height="256"><path fill="#606330" fill-rule="evenodd" d="M 126.0 25.0 L 113.0 55.0 L 102.0 68.0 L 94.0 94.0 L 94.0 111.0 L 99.0 126.0 L 109.0 137.0 L 119.0 142.0 L 75.0 155.0 L 30.0 152.0 L 29.0 158.0 L 45.0 184.0 L 66.0 203.0 L 96.0 216.0 L 111.0 228.0 L 137.0 230.0 L 197.0 197.0 L 215.0 177.0 L 226.0 154.0 L 179.0 155.0 L 136.0 142.0 L 155.0 127.0 L 160.0 115.0 L 161.0 96.0 L 155.0 72.0 L 142.0 55.0 L 132.0 28.0 Z M 48.0 177.0 L 52.0 176.0 L 70.0 179.0 L 88.0 177.0 L 105.0 171.0 L 121.0 162.0 L 130.0 161.0 L 163.0 176.0 L 185.0 179.0 L 203.0 176.0 L 206.0 178.0 L 190.0 194.0 L 180.0 201.0 L 168.0 207.0 L 153.0 211.0 L 148.0 218.0 L 141.0 222.0 L 133.0 224.0 L 122.0 224.0 L 110.0 220.0 L 104.0 215.0 L 102.0 211.0 L 87.0 207.0 L 75.0 201.0 L 58.0 188.0 Z M 128.0 35.0 L 136.0 57.0 L 134.0 73.0 L 136.0 75.0 L 138.0 74.0 L 143.0 65.0 L 151.0 80.0 L 154.0 93.0 L 154.0 111.0 L 149.0 124.0 L 143.0 130.0 L 142.0 128.0 L 145.0 114.0 L 142.0 99.0 L 132.0 78.0 L 129.0 75.0 L 126.0 75.0 L 117.0 90.0 L 112.0 104.0 L 110.0 114.0 L 111.0 125.0 L 114.0 130.0 L 112.0 131.0 L 105.0 123.0 L 101.0 113.0 L 101.0 92.0 L 106.0 75.0 L 112.0 65.0 L 114.0 71.0 L 118.0 75.0 L 121.0 73.0 L 119.0 67.0 L 119.0 57.0 L 126.0 36.0 Z M 37.0 160.0 L 40.0 159.0 L 60.0 162.0 L 80.0 161.0 L 94.0 158.0 L 115.0 150.0 L 131.0 148.0 L 174.0 161.0 L 194.0 162.0 L 215.0 159.0 L 217.0 161.0 L 206.0 169.0 L 192.0 172.0 L 178.0 172.0 L 160.0 168.0 L 134.0 155.0 L 122.0 155.0 L 92.0 169.0 L 77.0 172.0 L 63.0 172.0 L 46.0 168.0 Z M 127.0 85.0 L 129.0 86.0 L 132.0 92.0 L 138.0 110.0 L 138.0 121.0 L 132.0 132.0 L 131.0 131.0 L 131.0 115.0 L 129.0 112.0 L 126.0 112.0 L 124.0 115.0 L 124.0 131.0 L 123.0 132.0 L 119.0 127.0 L 117.0 121.0 L 117.0 111.0 L 119.0 103.0 Z M 128.0 169.0 L 126.0 170.0 L 125.0 175.0 L 119.0 181.0 L 113.0 183.0 L 113.0 184.0 L 117.0 185.0 L 124.0 193.0 L 125.0 205.0 L 123.0 210.0 L 119.0 215.0 L 124.0 215.0 L 125.0 216.0 L 135.0 215.0 L 136.0 214.0 L 130.0 206.0 L 130.0 196.0 L 132.0 191.0 L 138.0 185.0 L 142.0 184.0 L 141.0 182.0 L 136.0 181.0 L 130.0 175.0 Z M 158.0 188.0 L 149.0 186.0 L 141.0 189.0 L 138.0 192.0 L 135.0 198.0 L 135.0 206.0 L 139.0 211.0 L 141.0 212.0 L 144.0 209.0 L 141.0 204.0 L 141.0 200.0 L 146.0 194.0 L 153.0 193.0 L 159.0 198.0 L 163.0 197.0 L 162.0 192.0 Z M 97.0 188.0 L 93.0 192.0 L 92.0 197.0 L 96.0 198.0 L 98.0 195.0 L 102.0 193.0 L 109.0 194.0 L 113.0 198.0 L 114.0 201.0 L 111.0 210.0 L 114.0 212.0 L 116.0 211.0 L 120.0 205.0 L 120.0 198.0 L 117.0 192.0 L 112.0 188.0 L 106.0 186.0 Z"/></svg>
