<svg xmlns="http://www.w3.org/2000/svg" viewBox="0 0 256 256" width="256" height="256"><path fill="#606330" fill-rule="evenodd" d="M 128.0 24.0 L 120.0 31.0 L 125.0 42.0 L 122.0 50.0 L 96.0 57.0 L 78.0 69.0 L 71.0 66.0 L 67.0 57.0 L 57.0 60.0 L 57.0 69.0 L 69.0 79.0 L 58.0 95.0 L 51.0 123.0 L 46.0 121.0 L 42.0 125.0 L 30.0 120.0 L 25.0 131.0 L 31.0 137.0 L 42.0 132.0 L 51.0 134.0 L 56.0 157.0 L 70.0 179.0 L 57.0 189.0 L 58.0 199.0 L 68.0 200.0 L 71.0 191.0 L 78.0 187.0 L 98.0 200.0 L 122.0 206.0 L 125.0 214.0 L 120.0 224.0 L 130.0 231.0 L 136.0 226.0 L 134.0 206.0 L 159.0 200.0 L 179.0 187.0 L 189.0 200.0 L 200.0 197.0 L 200.0 189.0 L 187.0 179.0 L 199.0 161.0 L 205.0 135.0 L 214.0 132.0 L 224.0 137.0 L 230.0 126.0 L 222.0 119.0 L 214.0 124.0 L 205.0 121.0 L 201.0 100.0 L 188.0 79.0 L 200.0 68.0 L 200.0 60.0 L 191.0 56.0 L 179.0 69.0 L 157.0 55.0 L 135.0 50.0 L 132.0 42.0 L 137.0 30.0 Z M 133.0 60.0 L 143.0 61.0 L 155.0 65.0 L 167.0 72.0 L 174.0 78.0 L 169.0 81.0 L 168.0 85.0 L 157.0 96.0 L 154.0 95.0 L 150.0 98.0 L 149.0 100.0 L 150.0 103.0 L 141.0 112.0 L 133.0 109.0 L 131.0 107.0 L 131.0 95.0 L 134.0 92.0 L 134.0 87.0 L 131.0 84.0 L 131.0 69.0 L 133.0 67.0 L 132.0 62.0 Z M 116.0 144.0 L 126.0 148.0 L 126.0 162.0 L 124.0 163.0 L 122.0 167.0 L 123.0 170.0 L 126.0 173.0 L 126.0 187.0 L 124.0 189.0 L 125.0 194.0 L 124.0 196.0 L 115.0 195.0 L 100.0 190.0 L 87.0 182.0 L 83.0 178.0 L 86.0 177.0 L 89.0 174.0 L 89.0 171.0 L 100.0 160.0 L 105.0 160.0 L 107.0 158.0 L 108.0 155.0 L 107.0 153.0 Z M 124.0 60.0 L 125.0 61.0 L 124.0 67.0 L 126.0 69.0 L 126.0 84.0 L 122.0 89.0 L 123.0 92.0 L 126.0 95.0 L 126.0 108.0 L 117.0 112.0 L 109.0 105.0 L 107.0 102.0 L 108.0 101.0 L 107.0 98.0 L 105.0 96.0 L 100.0 96.0 L 89.0 85.0 L 88.0 81.0 L 83.0 78.0 L 93.0 70.0 L 105.0 64.0 L 115.0 61.0 Z M 141.0 144.0 L 150.0 153.0 L 149.0 155.0 L 150.0 158.0 L 152.0 160.0 L 156.0 160.0 L 168.0 172.0 L 169.0 176.0 L 172.0 177.0 L 173.0 179.0 L 166.0 185.0 L 155.0 191.0 L 142.0 195.0 L 133.0 196.0 L 132.0 195.0 L 133.0 189.0 L 131.0 187.0 L 131.0 173.0 L 134.0 170.0 L 135.0 167.0 L 133.0 163.0 L 131.0 162.0 L 131.0 148.0 Z M 149.0 131.0 L 162.0 131.0 L 165.0 134.0 L 170.0 134.0 L 173.0 131.0 L 186.0 131.0 L 188.0 133.0 L 192.0 133.0 L 194.0 131.0 L 196.0 132.0 L 196.0 138.0 L 192.0 153.0 L 187.0 163.0 L 178.0 174.0 L 177.0 170.0 L 175.0 168.0 L 172.0 168.0 L 161.0 157.0 L 161.0 152.0 L 158.0 149.0 L 153.0 149.0 L 145.0 140.0 Z M 61.0 132.0 L 63.0 131.0 L 66.0 133.0 L 69.0 133.0 L 72.0 131.0 L 84.0 131.0 L 87.0 134.0 L 92.0 134.0 L 94.0 131.0 L 108.0 131.0 L 112.0 138.0 L 112.0 140.0 L 103.0 149.0 L 98.0 149.0 L 96.0 152.0 L 96.0 156.0 L 84.0 168.0 L 82.0 168.0 L 80.0 170.0 L 80.0 172.0 L 78.0 173.0 L 70.0 163.0 L 65.0 153.0 L 62.0 144.0 Z M 179.0 83.0 L 184.0 89.0 L 191.0 101.0 L 195.0 113.0 L 196.0 124.0 L 194.0 125.0 L 191.0 123.0 L 188.0 123.0 L 186.0 125.0 L 173.0 125.0 L 170.0 122.0 L 166.0 122.0 L 163.0 125.0 L 149.0 125.0 L 145.0 116.0 L 154.0 107.0 L 159.0 107.0 L 161.0 104.0 L 161.0 100.0 L 169.0 91.0 L 176.0 88.0 L 177.0 84.0 Z M 79.0 83.0 L 80.0 87.0 L 82.0 89.0 L 85.0 89.0 L 96.0 100.0 L 96.0 104.0 L 98.0 107.0 L 103.0 107.0 L 112.0 115.0 L 108.0 125.0 L 94.0 125.0 L 91.0 122.0 L 87.0 122.0 L 84.0 125.0 L 71.0 125.0 L 69.0 123.0 L 66.0 123.0 L 64.0 125.0 L 61.0 124.0 L 62.0 113.0 L 66.0 101.0 L 73.0 89.0 Z M 127.0 117.0 L 135.0 119.0 L 139.0 124.0 L 139.0 132.0 L 136.0 136.0 L 130.0 139.0 L 124.0 138.0 L 118.0 131.0 L 119.0 123.0 L 124.0 118.0 Z"/></svg>
