<svg xmlns="http://www.w3.org/2000/svg" viewBox="0 0 256 256" width="256" height="256"><path fill="#606330" fill-rule="evenodd" d="M 24.0 123.0 L 36.0 150.0 L 59.0 170.0 L 44.0 181.0 L 46.0 188.0 L 66.0 198.0 L 85.0 200.0 L 97.0 197.0 L 113.0 187.0 L 127.0 203.0 L 138.0 195.0 L 142.0 187.0 L 158.0 197.0 L 170.0 200.0 L 193.0 197.0 L 212.0 185.0 L 211.0 181.0 L 196.0 170.0 L 216.0 154.0 L 231.0 125.0 L 222.0 119.0 L 197.0 119.0 L 200.0 92.0 L 183.0 94.0 L 178.0 69.0 L 162.0 74.0 L 150.0 84.0 L 138.0 62.0 L 128.0 52.0 L 117.0 63.0 L 105.0 84.0 L 93.0 74.0 L 77.0 69.0 L 72.0 94.0 L 55.0 92.0 L 57.0 120.0 L 42.0 118.0 Z M 128.0 58.0 L 140.0 74.0 L 148.0 94.0 L 151.0 109.0 L 151.0 131.0 L 147.0 147.0 L 141.0 158.0 L 136.0 163.0 L 135.0 161.0 L 140.0 148.0 L 141.0 132.0 L 136.0 112.0 L 130.0 101.0 L 127.0 99.0 L 119.0 112.0 L 114.0 132.0 L 115.0 149.0 L 120.0 161.0 L 119.0 163.0 L 112.0 156.0 L 106.0 143.0 L 104.0 134.0 L 104.0 109.0 L 112.0 81.0 L 120.0 67.0 Z M 194.0 96.0 L 196.0 99.0 L 193.0 116.0 L 187.0 132.0 L 181.0 142.0 L 165.0 158.0 L 156.0 163.0 L 154.0 162.0 L 172.0 144.0 L 181.0 128.0 L 183.0 122.0 L 180.0 121.0 L 173.0 136.0 L 166.0 146.0 L 156.0 156.0 L 143.0 164.0 L 142.0 163.0 L 147.0 157.0 L 151.0 149.0 L 155.0 134.0 L 155.0 128.0 L 158.0 121.0 L 175.0 104.0 L 182.0 100.0 Z M 60.0 96.0 L 68.0 98.0 L 78.0 103.0 L 93.0 116.0 L 99.0 125.0 L 102.0 145.0 L 108.0 158.0 L 112.0 162.0 L 111.0 164.0 L 99.0 156.0 L 89.0 146.0 L 79.0 131.0 L 75.0 121.0 L 73.0 121.0 L 72.0 123.0 L 79.0 138.0 L 86.0 148.0 L 101.0 162.0 L 99.0 163.0 L 90.0 158.0 L 74.0 142.0 L 65.0 126.0 L 62.0 117.0 L 59.0 102.0 Z M 226.0 126.0 L 219.0 142.0 L 214.0 149.0 L 196.0 165.0 L 186.0 170.0 L 172.0 174.0 L 155.0 173.0 L 179.0 167.0 L 195.0 158.0 L 207.0 147.0 L 209.0 142.0 L 207.0 142.0 L 196.0 153.0 L 182.0 162.0 L 161.0 169.0 L 156.0 168.0 L 166.0 163.0 L 177.0 154.0 L 187.0 141.0 L 195.0 126.0 L 205.0 123.0 L 218.0 123.0 Z M 29.0 126.0 L 37.0 123.0 L 50.0 123.0 L 60.0 126.0 L 72.0 147.0 L 85.0 160.0 L 99.0 168.0 L 95.0 169.0 L 78.0 164.0 L 62.0 155.0 L 48.0 142.0 L 46.0 142.0 L 48.0 147.0 L 56.0 155.0 L 66.0 162.0 L 81.0 169.0 L 100.0 173.0 L 83.0 174.0 L 69.0 170.0 L 59.0 165.0 L 41.0 149.0 L 35.0 140.0 Z M 127.0 107.0 L 129.0 108.0 L 134.0 119.0 L 137.0 133.0 L 137.0 143.0 L 135.0 153.0 L 128.0 166.0 L 125.0 164.0 L 121.0 156.0 L 118.0 144.0 L 119.0 127.0 L 121.0 119.0 Z M 49.0 184.0 L 56.0 177.0 L 65.0 173.0 L 80.0 178.0 L 90.0 178.0 L 91.0 179.0 L 104.0 178.0 L 109.0 176.0 L 112.0 177.0 L 101.0 183.0 L 92.0 186.0 L 70.0 187.0 L 70.0 189.0 L 72.0 190.0 L 88.0 190.0 L 102.0 186.0 L 107.0 183.0 L 109.0 184.0 L 101.0 190.0 L 88.0 195.0 L 68.0 194.0 L 54.0 188.0 Z M 206.0 184.0 L 201.0 188.0 L 187.0 194.0 L 168.0 195.0 L 158.0 192.0 L 146.0 184.0 L 148.0 183.0 L 153.0 186.0 L 167.0 190.0 L 183.0 190.0 L 186.0 188.0 L 185.0 187.0 L 168.0 187.0 L 160.0 185.0 L 143.0 177.0 L 146.0 176.0 L 151.0 178.0 L 164.0 179.0 L 165.0 178.0 L 175.0 178.0 L 190.0 173.0 L 199.0 177.0 Z M 80.0 74.0 L 83.0 74.0 L 89.0 77.0 L 96.0 82.0 L 104.0 90.0 L 101.0 99.0 L 100.0 111.0 L 98.0 115.0 L 89.0 105.0 L 76.0 96.0 L 77.0 83.0 Z M 175.0 74.0 L 178.0 82.0 L 179.0 96.0 L 167.0 104.0 L 157.0 115.0 L 155.0 111.0 L 155.0 104.0 L 152.0 94.0 L 152.0 89.0 L 163.0 79.0 L 170.0 75.0 Z M 126.0 171.0 L 131.0 172.0 L 136.0 177.0 L 138.0 183.0 L 135.0 191.0 L 127.0 198.0 L 119.0 190.0 L 117.0 185.0 L 119.0 177.0 Z"/></svg>
