<svg xmlns="http://www.w3.org/2000/svg" viewBox="0 0 256 256" width="256" height="256"><path fill="#606330" fill-rule="evenodd" d="M 119.0 49.0 L 111.0 51.0 L 101.0 56.0 L 88.0 68.0 L 80.0 85.0 L 79.0 104.0 L 82.0 115.0 L 86.0 123.0 L 98.0 136.0 L 115.0 144.0 L 135.0 145.0 L 146.0 142.0 L 154.0 138.0 L 167.0 126.0 L 175.0 109.0 L 176.0 90.0 L 173.0 79.0 L 169.0 71.0 L 157.0 58.0 L 149.0 53.0 L 136.0 49.0 Z M 24.0 157.0 L 27.0 167.0 L 34.0 174.0 L 43.0 177.0 L 58.0 174.0 L 57.0 189.0 L 69.0 202.0 L 82.0 204.0 L 108.0 195.0 L 125.0 206.0 L 145.0 195.0 L 156.0 196.0 L 168.0 203.0 L 183.0 203.0 L 192.0 198.0 L 197.0 190.0 L 197.0 174.0 L 217.0 176.0 L 227.0 169.0 L 231.0 159.0 L 225.0 145.0 L 219.0 142.0 L 206.0 144.0 L 202.0 139.0 L 198.0 144.0 L 205.0 155.0 L 213.0 150.0 L 223.0 155.0 L 222.0 162.0 L 216.0 168.0 L 202.0 168.0 L 169.0 150.0 L 149.0 151.0 L 132.0 166.0 L 130.0 179.0 L 135.0 191.0 L 127.0 197.0 L 120.0 191.0 L 125.0 177.0 L 123.0 167.0 L 117.0 158.0 L 106.0 151.0 L 83.0 151.0 L 54.0 168.0 L 39.0 168.0 L 32.0 156.0 L 37.0 150.0 L 42.0 150.0 L 48.0 156.0 L 56.0 144.0 L 52.0 139.0 L 48.0 145.0 L 43.0 142.0 L 31.0 144.0 Z M 39.0 120.0 L 31.0 129.0 L 29.0 134.0 L 30.0 138.0 L 32.0 139.0 L 36.0 138.0 L 39.0 131.0 L 46.0 125.0 L 58.0 124.0 L 62.0 126.0 L 68.0 133.0 L 69.0 144.0 L 64.0 153.0 L 66.0 156.0 L 69.0 156.0 L 74.0 151.0 L 77.0 143.0 L 76.0 132.0 L 71.0 123.0 L 66.0 119.0 L 59.0 116.0 L 48.0 116.0 Z M 222.0 126.0 L 216.0 120.0 L 207.0 116.0 L 196.0 116.0 L 189.0 119.0 L 183.0 124.0 L 179.0 131.0 L 178.0 144.0 L 181.0 151.0 L 186.0 156.0 L 190.0 155.0 L 190.0 151.0 L 186.0 145.0 L 186.0 135.0 L 188.0 131.0 L 193.0 126.0 L 197.0 124.0 L 206.0 124.0 L 212.0 127.0 L 216.0 131.0 L 219.0 138.0 L 223.0 139.0 L 226.0 135.0 Z M 74.0 166.0 L 83.0 166.0 L 90.0 169.0 L 95.0 174.0 L 97.0 178.0 L 97.0 183.0 L 95.0 188.0 L 87.0 195.0 L 75.0 196.0 L 68.0 192.0 L 65.0 188.0 L 65.0 180.0 L 69.0 176.0 L 78.0 177.0 L 80.0 180.0 L 81.0 185.0 L 85.0 186.0 L 87.0 184.0 L 87.0 176.0 L 85.0 173.0 L 79.0 169.0 L 72.0 169.0 L 71.0 168.0 Z M 169.0 167.0 L 173.0 166.0 L 182.0 166.0 L 183.0 167.0 L 180.0 169.0 L 176.0 169.0 L 170.0 173.0 L 168.0 177.0 L 168.0 184.0 L 170.0 186.0 L 174.0 185.0 L 176.0 178.0 L 182.0 175.0 L 186.0 176.0 L 190.0 181.0 L 189.0 189.0 L 184.0 194.0 L 180.0 196.0 L 171.0 196.0 L 166.0 194.0 L 160.0 188.0 L 158.0 184.0 L 159.0 175.0 L 162.0 171.0 Z M 168.0 158.0 L 169.0 159.0 L 160.0 163.0 L 152.0 172.0 L 151.0 187.0 L 150.0 188.0 L 143.0 188.0 L 138.0 181.0 L 138.0 172.0 L 140.0 168.0 L 147.0 161.0 L 153.0 158.0 L 158.0 157.0 Z M 87.0 158.0 L 92.0 157.0 L 102.0 158.0 L 108.0 161.0 L 114.0 167.0 L 117.0 174.0 L 117.0 179.0 L 115.0 184.0 L 111.0 188.0 L 105.0 188.0 L 104.0 187.0 L 103.0 172.0 L 95.0 163.0 L 86.0 159.0 Z M 128.0 65.0 L 127.0 67.0 L 122.0 68.0 L 114.0 72.0 L 106.0 80.0 L 103.0 88.0 L 101.0 90.0 L 99.0 88.0 L 94.0 87.0 L 97.0 78.0 L 107.0 67.0 L 116.0 63.0 L 124.0 63.0 Z M 164.0 102.0 L 165.0 103.0 L 164.0 111.0 L 159.0 121.0 L 150.0 129.0 L 142.0 132.0 L 141.0 131.0 L 149.0 127.0 L 157.0 119.0 L 160.0 114.0 Z M 97.0 92.0 L 101.0 96.0 L 101.0 98.0 L 97.0 101.0 L 93.0 97.0 L 94.0 94.0 Z"/></svg>
