<svg xmlns="http://www.w3.org/2000/svg" viewBox="0 0 256 256" width="256" height="256"><path fill="#606330" fill-rule="evenodd" d="M 125.0 115.0 L 120.0 117.0 L 115.0 122.0 L 113.0 127.0 L 113.0 133.0 L 118.0 141.0 L 124.0 144.0 L 131.0 144.0 L 137.0 141.0 L 142.0 133.0 L 142.0 127.0 L 140.0 122.0 L 135.0 117.0 L 130.0 115.0 Z M 24.0 129.0 L 27.0 132.0 L 102.0 132.0 L 104.0 131.0 L 104.0 128.0 L 102.0 127.0 L 27.0 127.0 Z M 151.0 129.0 L 153.0 132.0 L 228.0 132.0 L 231.0 130.0 L 228.0 127.0 L 153.0 127.0 Z M 126.0 119.0 L 132.0 120.0 L 137.0 125.0 L 138.0 128.0 L 137.0 134.0 L 130.0 140.0 L 123.0 139.0 L 117.0 132.0 L 118.0 125.0 L 123.0 120.0 Z M 127.0 26.0 L 126.0 27.0 L 126.0 107.0 L 129.0 107.0 L 130.0 106.0 L 130.0 27.0 Z M 212.0 78.0 L 209.0 78.0 L 184.0 95.0 L 150.0 116.0 L 149.0 119.0 L 150.0 120.0 L 154.0 119.0 L 192.0 95.0 L 195.0 92.0 L 210.0 83.0 L 213.0 80.0 Z M 43.0 78.0 L 43.0 81.0 L 45.0 83.0 L 103.0 120.0 L 106.0 119.0 L 106.0 117.0 L 92.0 107.0 L 46.0 78.0 Z M 78.0 45.0 L 76.0 48.0 L 112.0 109.0 L 115.0 111.0 L 116.0 107.0 L 81.0 47.0 Z M 149.0 140.0 L 149.0 142.0 L 151.0 144.0 L 209.0 181.0 L 212.0 180.0 L 211.0 177.0 L 160.0 144.0 L 151.0 139.0 Z M 126.0 152.0 L 126.0 229.0 L 129.0 229.0 L 130.0 228.0 L 130.0 153.0 Z M 179.0 46.0 L 176.0 46.0 L 174.0 48.0 L 139.0 108.0 L 140.0 111.0 L 143.0 110.0 L 145.0 105.0 L 178.0 51.0 Z M 106.0 141.0 L 102.0 140.0 L 44.0 177.0 L 43.0 180.0 L 46.0 181.0 L 103.0 145.0 Z M 140.0 148.0 L 139.0 152.0 L 172.0 208.0 L 177.0 213.0 L 178.0 209.0 L 144.0 151.0 Z M 115.0 148.0 L 111.0 151.0 L 77.0 209.0 L 78.0 213.0 L 83.0 208.0 L 116.0 152.0 Z M 183.0 75.0 L 180.0 75.0 L 163.0 93.0 L 166.0 95.0 L 184.0 77.0 Z M 91.0 165.0 L 87.0 166.0 L 72.0 181.0 L 71.0 184.0 L 74.0 185.0 L 92.0 167.0 Z M 72.0 75.0 L 71.0 77.0 L 90.0 95.0 L 92.0 93.0 L 91.0 91.0 L 75.0 75.0 Z M 164.0 165.0 L 163.0 167.0 L 181.0 185.0 L 183.0 184.0 L 183.0 181.0 L 167.0 165.0 Z M 140.0 178.0 L 139.0 182.0 L 146.0 202.0 L 149.0 203.0 L 150.0 200.0 L 145.0 188.0 L 145.0 185.0 L 142.0 178.0 Z M 149.0 56.0 L 147.0 56.0 L 139.0 78.0 L 140.0 81.0 L 143.0 80.0 L 146.0 69.0 L 150.0 60.0 Z M 105.0 56.0 L 104.0 58.0 L 111.0 78.0 L 113.0 81.0 L 115.0 81.0 L 116.0 79.0 L 109.0 58.0 L 107.0 56.0 Z M 52.0 108.0 L 53.0 111.0 L 68.0 116.0 L 76.0 117.0 L 76.0 114.0 L 55.0 107.0 Z M 115.0 178.0 L 112.0 178.0 L 105.0 198.0 L 106.0 203.0 L 109.0 200.0 L 115.0 182.0 Z M 203.0 108.0 L 200.0 107.0 L 193.0 110.0 L 190.0 110.0 L 179.0 114.0 L 179.0 116.0 L 180.0 117.0 L 187.0 116.0 L 202.0 111.0 Z M 179.0 142.0 L 179.0 144.0 L 183.0 146.0 L 199.0 150.0 L 203.0 149.0 L 202.0 146.0 L 182.0 141.0 Z M 76.0 142.0 L 73.0 141.0 L 53.0 146.0 L 52.0 149.0 L 56.0 150.0 L 75.0 145.0 Z"/></svg>
