<svg xmlns="http://www.w3.org/2000/svg" width="1536" height="1024" viewBox="0 0 1536 1024" role="img" aria-labelledby="title desc">
<title id="title">祖先牌位與生命之根</title>
<desc id="desc">深綠與霧金色調的靜謐室內，一座簡約牌位前延伸出金色生命根系，象徵祖先記憶而非恐懼。</desc>
<defs>
  <linearGradient id="bg" x1="0" y1="0" x2="1" y2="1"><stop stop-color="#071106"/><stop offset=".55" stop-color="#1b2517"/><stop offset="1" stop-color="#4a4037"/></linearGradient>
  <radialGradient id="glow" cx="50%" cy="36%" r="55%"><stop stop-color="#d5bc86" stop-opacity=".42"/><stop offset="1" stop-color="#d5bc86" stop-opacity="0"/></radialGradient>
  <linearGradient id="gold" x1="0" y1="0" x2="0" y2="1"><stop stop-color="#e3c990"/><stop offset="1" stop-color="#8d6b3e"/></linearGradient>
  <filter id="blur"><feGaussianBlur stdDeviation="22"/></filter>
  <filter id="soft"><feGaussianBlur stdDeviation="3"/></filter>
</defs>
<rect width="1536" height="1024" fill="url(#bg)"/>
<ellipse cx="768" cy="350" rx="560" ry="380" fill="url(#glow)" filter="url(#blur)"/>
<g opacity=".2" stroke="#d9c7a2" fill="none">
  <path d="M0 780 Q340 690 620 760 T1536 730"/>
  <path d="M0 820 Q360 740 720 810 T1536 790"/>
</g>
<g transform="translate(768 420)">
  <path d="M-142 210h284l-22 60h-240z" fill="#352c25" stroke="#a58254" stroke-width="3"/>
  <path d="M-92 200V-44Q0-120 92-44V200z" fill="#231d18" stroke="url(#gold)" stroke-width="5"/>
  <path d="M-55 162V-12Q0-68 55-12V162z" fill="#302820" stroke="#b99861" stroke-width="2" opacity=".72"/>
  <circle cy="42" r="8" fill="#d9bd7b"/>
</g>
<g fill="none" stroke="url(#gold)" stroke-linecap="round">
  <path d="M768 670 C760 742 720 770 690 830 C664 882 650 932 652 1024" stroke-width="8"/>
  <path d="M758 710 C700 760 618 770 564 830 C520 878 492 940 474 1024" stroke-width="4"/>
  <path d="M778 718 C836 764 918 780 970 844 C1008 890 1026 950 1042 1024" stroke-width="4"/>
  <path d="M730 778 C650 806 596 860 570 930" stroke-width="2"/>
  <path d="M806 780 C886 812 940 866 962 930" stroke-width="2"/>
</g>
<g fill="#d7bd82" opacity=".85" filter="url(#soft)">
  <circle cx="566" cy="828" r="5"/><circle cx="970" cy="842" r="5"/><circle cx="652" cy="910" r="4"/><circle cx="886" cy="902" r="4"/>
</g>
<rect x="78" y="72" width="1380" height="880" fill="none" stroke="#c3a56f" stroke-opacity=".22"/>
</svg>
