<?xml version="1.0" encoding="UTF-8"?>
<svg xmlns="http://www.w3.org/2000/svg" viewBox="0 0 1600 900" role="img" aria-labelledby="t d">
<title id="t">靈性善終的三個轉化階段</title><desc id="d">混亂、臣服、超越</desc>
<defs><linearGradient id="bg" x1="0" y1="0" x2="0" y2="1"><stop stop-color="#FBF8F1"/><stop offset="1" stop-color="#F2EBDD"/></linearGradient><linearGradient id="flow" x1="0" y1="0" x2="1" y2="0"><stop stop-color="#D0A15E"/><stop offset=".5" stop-color="#86A896"/><stop offset="1" stop-color="#88A6B8"/></linearGradient></defs>
<rect width="1600" height="900" fill="url(#bg)"/>
<g fill="none" stroke="#CBAA6F" stroke-width="2" opacity=".45"><path d="M150 210c38-42 76-64 115-78m-74 104l-29-33m69 14l26-42"/><path d="M1450 210c-38-42-76-64-115-78m74 104l29-33m-69 14l-26-42"/></g>
<text x="800" y="145" text-anchor="middle" fill="#725733" font-size="60" font-family="Source Han Serif TC,Noto Serif TC,serif" font-weight="600">《靈性善終》的三個轉化階段</text>
<path d="M280 455C470 360 590 545 790 445S1115 505 1320 420" fill="none" stroke="url(#flow)" stroke-width="22" stroke-linecap="round" opacity=".72"/>
<circle cx="360" cy="430" r="128" fill="#FFFDF9" stroke="#D0A15E" stroke-width="5"/>
<circle cx="800" cy="430" r="128" fill="#FFFDF9" stroke="#86A896" stroke-width="5"/>
<circle cx="1240" cy="430" r="128" fill="#FFFDF9" stroke="#88A6B8" stroke-width="5"/>
<text x="360" y="420" text-anchor="middle" fill="#9B6B2F" font-size="50" font-family="Source Han Serif TC,Noto Serif TC,serif" font-weight="600">混亂</text>
<text x="360" y="475" text-anchor="middle" fill="#6F675E" font-size="28" font-family="Source Han Serif TC,Noto Serif TC,serif">熟悉秩序鬆動</text>
<text x="800" y="420" text-anchor="middle" fill="#537568" font-size="50" font-family="Source Han Serif TC,Noto Serif TC,serif" font-weight="600">臣服</text>
<text x="800" y="475" text-anchor="middle" fill="#6F675E" font-size="28" font-family="Source Han Serif TC,Noto Serif TC,serif">停止抵抗實相</text>
<text x="1240" y="420" text-anchor="middle" fill="#58778A" font-size="50" font-family="Source Han Serif TC,Noto Serif TC,serif" font-weight="600">超越</text>
<text x="1240" y="475" text-anchor="middle" fill="#6F675E" font-size="28" font-family="Source Han Serif TC,Noto Serif TC,serif">自我邊界鬆開</text>
<text x="800" y="650" text-anchor="middle" fill="#675E53" font-size="30" font-family="Source Han Serif TC,Noto Serif TC,serif">從心智自我的解構，走向比個人生命故事更深的「存有本源」</text>
<path d="M0 710C185 648 345 742 540 690C750 635 890 760 1090 690C1275 625 1430 660 1600 600V900H0Z" fill="#DCE8E4"/>
<path d="M0 790C210 742 375 820 590 772C795 727 960 825 1160 770C1350 720 1480 750 1600 718V900H0Z" fill="#91ADA3" opacity=".55"/>
<path d="M0 850C250 810 410 865 625 828C850 790 1010 865 1230 825C1395 795 1510 810 1600 792V900H0Z" fill="#6D8E83" opacity=".38"/>
<g fill="#C9A96D" opacity=".75"><circle cx="90" cy="742" r="4"/><circle cx="205" cy="780" r="3"/><circle cx="1370" cy="720" r="4"/><circle cx="1490" cy="758" r="3"/></g>
</svg>